<svg width="150" height="26" viewBox="0 0 150 26" fill="none" xmlns="http://www.w3.org/2000/svg">
<path d="M19.7397 5.34337C20.8601 5.34337 21.8205 5.74352 22.6208 6.5438C23.421 7.31741 23.8212 8.26441 23.8212 9.38481V21.5891H19.7397V17.5077H11.6168V21.5891H19.7397V25.6306H11.6168C10.4964 25.6306 9.53611 25.2438 8.73582 24.4702C7.96222 23.6699 7.57541 22.7095 7.57541 21.5891V17.5077C7.57541 16.3873 7.96222 15.4403 8.73582 14.6667C9.53611 13.8664 10.4964 13.4663 11.6168 13.4663H19.7397V9.38481H9.61614V5.34337H19.7397Z" fill="white"/>
<path d="M0 0.243128H4.04143V4.12091C1.79662 4.12091 0 2.48794 0 0.243128ZM3.05323e-06 25.6624V5.39833H4.04144V25.6624H3.05323e-06Z" fill="white"/>
<path d="M34.5568 17.5386C34.5773 17.5914 34.6522 17.5914 34.6727 17.5386C35.4807 15.4612 37.1236 13.8183 39.201 13.0103C39.2538 12.9897 39.2538 12.9149 39.201 12.8944C37.1236 12.0864 35.4807 10.4435 34.6727 8.36605C34.6522 8.31325 34.5773 8.31326 34.5568 8.36605C33.7488 10.4435 32.1059 12.0864 30.0284 12.8944C29.9756 12.9149 29.9756 12.9898 30.0284 13.0103C32.1059 13.8183 33.7488 15.4612 34.5568 17.5386Z" fill="url(#paint0_linear_0_5)"/>
<path d="M45.4108 15.8766C45.4108 15.3587 45.4486 15.2463 45.7464 14.9511L49.4419 11.5466C49.5531 11.4364 49.5908 11.324 49.5908 11.1764V10.8811C49.5908 10.5858 49.3286 10.3633 49.0686 10.3633H45.9331C45.6353 10.3633 45.4108 10.1407 45.4108 9.84545V0.517833C45.4108 0.222558 45.6353 0 45.9331 0H50.8597C51.122 0 51.382 0.222558 51.382 0.517833V8.80758C51.382 9.10285 51.6064 9.32541 51.9042 9.32541H52.202C52.3509 9.32541 52.4642 9.28795 52.5753 9.17777L56.5686 5.51327C56.8664 5.218 56.9798 5.18054 57.4642 5.18054H61.6064C64.742 5.18054 66.3087 6.73404 66.3087 9.84324V15.3213C66.3087 15.8391 66.2709 15.9867 65.9731 16.2467L55.822 25.5722C55.5242 25.8674 55.4109 25.9049 54.8886 25.9049H50.1108C46.9753 25.9049 45.4086 24.3514 45.4086 21.2422V15.8766H45.4108ZM59.8175 10.3633H51.9064C51.6086 10.3633 51.3842 10.5858 51.3842 10.8811V20.2065C51.3842 20.5018 51.6086 20.7244 51.9064 20.7244H59.8175C60.0798 20.7244 60.3398 20.5018 60.3398 20.2065V10.8811C60.3398 10.5858 60.0775 10.3633 59.8175 10.3633Z" fill="white"/>
<path d="M67.2456 21.2423V15.7643C67.2456 15.2464 67.2834 15.1363 67.5812 14.8388L77.7324 5.51337C78.0301 5.2181 78.1435 5.18064 78.6657 5.18064H83.8168C86.9524 5.18064 88.5191 6.73413 88.5191 9.84334V15.3214C88.5191 15.8392 88.4813 15.9494 88.1835 16.2468L78.0323 25.5722C77.7346 25.8675 77.6212 25.905 77.099 25.905H71.9479C68.8123 25.905 67.2456 24.3515 67.2456 21.2423ZM73.739 20.7244H82.0235C82.3213 20.7244 82.5457 20.5019 82.5457 20.2066V10.8812C82.5457 10.5859 82.3213 10.3634 82.0235 10.3634H73.739C73.4768 10.3634 73.2168 10.5859 73.2168 10.8812V20.2066C73.2168 20.5019 73.4768 20.7244 73.739 20.7244Z" fill="white"/>
<path d="M89.4483 21.2423V15.7643C89.4483 15.2464 89.486 15.1363 89.7838 14.8388L99.935 5.51337C100.233 5.2181 100.346 5.18064 100.868 5.18064H106.019C109.155 5.18064 110.722 6.73413 110.722 9.84334V15.3214C110.722 15.8392 110.684 15.9494 110.386 16.2468L100.235 25.5722C99.9372 25.8675 99.8238 25.905 99.3016 25.905H94.1505C91.0149 25.905 89.4483 24.3515 89.4483 21.2423ZM95.9416 20.7244H104.226C104.524 20.7244 104.748 20.5019 104.748 20.2066V10.8812C104.748 10.5859 104.524 10.3634 104.226 10.3634H95.9416C95.6794 10.3634 95.4194 10.5859 95.4194 10.8812V20.2066C95.4194 20.5019 95.6816 20.7244 95.9416 20.7244Z" fill="white"/>
<path d="M108.481 25.0544L112.661 21.2422C112.996 20.947 113.332 20.7244 114.005 20.7244H123.858C124.121 20.7244 124.381 20.5018 124.381 20.2066V14.6184C124.381 14.2482 124.605 14.0631 125.165 14.0631H129.756C130.092 14.0631 130.278 14.2482 130.278 14.5809V15.8766C130.278 16.1366 130.203 16.3217 130.016 16.5046L119.941 25.7573C119.83 25.8675 119.716 25.9049 119.567 25.9049H108.818C108.185 25.9049 107.998 25.4973 108.483 25.0544H108.481ZM111.952 15.2838C111.952 15.0238 112.027 14.8387 112.214 14.6536L122.327 5.32822C122.438 5.21804 122.552 5.18058 122.701 5.18058H132.852V0.888073C132.852 0.592798 133.076 0.37024 133.374 0.37024H137.554C138.561 0.37024 138.823 0.592798 138.823 0.888073V8.80762C138.823 9.14035 138.972 9.32545 139.272 9.32545C139.458 9.32545 139.607 9.28799 139.794 9.10289L143.863 5.32822C143.974 5.21804 144.087 5.18058 144.199 5.18058H149.423C150.021 5.18058 150.17 5.69841 149.796 6.06861L145.467 10.2135C145.356 10.3237 145.243 10.3611 145.094 10.3611H139.347C139.05 10.3611 138.825 10.5837 138.825 10.8789V20.2044C138.825 20.4996 139.05 20.7222 139.347 20.7222H149.423C150.021 20.7222 150.17 21.24 149.796 21.6102L145.467 25.7551C145.356 25.8653 145.243 25.9027 145.094 25.9027H137.556C134.421 25.9027 132.854 24.3492 132.854 21.24V15.3566C132.854 15.2089 132.892 15.0965 133.003 14.9864L136.885 11.3219C137.034 11.1742 137.11 11.0993 137.11 10.8415C137.11 10.5462 136.923 10.3611 136.587 10.3611H133.341C133.043 10.3611 132.818 10.1386 132.818 9.84328V6.73408C132.818 6.47406 132.594 6.21625 132.296 6.21625H131.998C131.85 6.21625 131.738 6.25371 131.625 6.36388L128.005 10.2135C127.894 10.3237 127.781 10.3611 127.632 10.3611H118.414C118.154 10.3611 117.892 10.5837 117.892 10.8789V16.4671C117.892 16.8373 117.667 17.0224 117.107 17.0224H112.478C112.143 17.0224 111.956 16.8373 111.956 16.5046V15.2838H111.952Z" fill="white"/>
<defs>
<linearGradient id="paint0_linear_0_5" x1="32.5738" y1="16.2868" x2="36.7178" y2="9.10917" gradientUnits="userSpaceOnUse">
<stop stop-color="#C7A3F5"/>
<stop offset="1" stop-color="#721AE7"/>
</linearGradient>
</defs>
</svg>
